<svg id="Capa_1" enable-background="new 0 0 512 512" height="512" viewBox="0 0 512 512" width="512" xmlns="http://www.w3.org/2000/svg"><g><path d="m512 212.6c0 46.64-37.81 84.45-84.45 84.45h-343.1c-46.64 0-84.45-37.81-84.45-84.45 0-36.9 23.67-68.25 56.66-79.74-2.71-41.5 30.2-75.99 71.1-75.99 11.02 0 21.45 2.51 30.76 6.97 16.4-37.58 53.87-63.84 97.48-63.84s81.08 26.26 97.48 63.84c9.31-4.46 19.74-6.97 30.76-6.97 40.99 0 73.81 34.58 71.11 75.99 32.98 11.49 56.65 42.84 56.65 79.74z" fill="#a8ebfa"/><path d="m512 212.6c0 46.64-37.81 84.45-84.45 84.45h-171.55v-297.05c43.61 0 81.08 26.26 97.48 63.84 9.31-4.46 19.74-6.97 30.76-6.97 40.99 0 73.81 34.58 71.11 75.99 32.98 11.49 56.65 42.84 56.65 79.74z" fill="#7dd5f4"/><path d="m81.19 185.21h351.43v266.79h-351.43z" fill="#f0f7ff"/><path d="m255.71 185.21h176.91v266.79h-176.91z" fill="#dfe7f4"/><g><g><g><g><path d="m433.42 173.55h-355.42c-8.28 0-15 6.72-15 15v258.45c0 8.28 6.72 15 15 15h355.42c8.28 0 15-6.72 15-15v-258.45c0-8.28-6.72-15-15-15zm-15 258.45h-325.42v-228.45h325.42z" fill="#453d81"/></g></g></g></g><g><g><g><path d="m308.75 345.955c-5.841 5.841-15.354 5.866-21.22 0-8.49-8.5-19.8-13.18-31.82-13.18s-23.33 4.68-31.82 13.18c-5.86 5.86-15.36 5.86-21.22 0-5.85-5.86-5.85-15.36 0-21.21 14.17-14.17 33-21.97 53.04-21.97s38.87 7.8 53.04 21.97c5.85 5.85 5.85 15.35 0 21.21z" fill="#df5ccb"/></g><g><path d="m351.16 303.535c-5.818 5.838-15.341 5.869-21.21 0-19.82-19.84-46.19-30.76-74.24-30.76s-54.42 10.92-74.24 30.76c-5.86 5.85-15.36 5.86-21.21 0-5.86-5.85-5.87-15.35-.01-21.21 25.49-25.5 59.39-39.55 95.46-39.55s69.97 14.05 95.46 39.55c5.86 5.86 5.85 15.36-.01 21.21z" fill="#df5ccb"/></g><g><circle cx="255.71" cy="377.775" fill="#df5ccb" r="15"/></g></g><g fill="#c63eba"><path d="m270.71 377.775c0 8.28-6.72 15-15 15v-30c8.28 0 15 6.71 15 15z"/><path d="m308.75 324.745c5.85 5.85 5.85 15.35 0 21.21-5.841 5.841-15.354 5.866-21.22 0-8.49-8.5-19.8-13.18-31.82-13.18v-30c20.04 0 38.87 7.8 53.04 21.97z"/><path d="m351.16 303.535c-5.818 5.838-15.341 5.869-21.21 0-19.82-19.84-46.19-30.76-74.24-30.76v-30c36.07 0 69.97 14.05 95.46 39.55 5.86 5.86 5.85 15.36-.01 21.21z"/></g></g><path d="m448.42 188.55v258.45c0 8.28-6.72 15-15 15h-177.42v-30h162.42v-228.45h-162.42v-30h177.42c8.28 0 15 6.72 15 15z" fill="#332e70"/><g><g><path d="m482 447v7.53c0 31.69-25.78 57.47-57.47 57.47h-337.06c-31.69 0-57.47-25.78-57.47-57.47v-7.53c0-8.28 6.72-15 15-15h422c8.28 0 15 6.72 15 15z" fill="#5e54ac"/></g><path d="m482 447v7.53c0 31.69-25.78 57.47-57.47 57.47h-168.82v-80h211.29c8.28 0 15 6.72 15 15z" fill="#453d81"/></g></g></svg>