<?xml version="1.0" encoding="iso-8859-1"?>
<!-- Generator: Adobe Illustrator 19.0.0, SVG Export Plug-In . SVG Version: 6.00 Build 0)  -->
<svg version="1.1" id="Capa_1" xmlns="http://www.w3.org/2000/svg" xmlns:xlink="http://www.w3.org/1999/xlink" x="0px" y="0px"
	 viewBox="0 0 512 512" style="enable-background:new 0 0 512 512;" xml:space="preserve">
<g>
	<g>
		<path d="M432.737,48.259C401.619,17.141,360.172,0,316.045,0v30.004c36.113,0,70.03,14.021,95.478,39.469
			s39.469,59.363,39.469,95.478h30.004C480.996,120.823,463.854,79.376,432.737,48.259z"/>
	</g>
</g>
<g>
	<g>
		<path d="M390.294,90.702C370.501,70.894,344.13,59.98,316.045,59.98v30.004c20.071,0,38.898,7.794,53.035,21.932
			s21.932,32.963,21.932,53.035h30.004C421.016,136.866,410.101,110.495,390.294,90.702z"/>
	</g>
</g>
<g>
	<g>
		<path d="M273.613,228.596l23.364-23.364c6.071,2.862,12.481,4.696,19.068,4.696c11.53,0,23.045-4.381,31.821-13.156
			c17.552-17.552,17.552-46.091,0-63.642s-46.091-17.552-63.642,0c-13.792,13.792-16.342,34.191-8.46,50.888l-23.364,23.364
			L124.929,79.918l-10.284,14.445c-50.705,71.128-47.102,168.393,7.34,235.698l-0.015,0.015
			c64.775,79.609,181.084,95.855,264.662,36.275l14.445-10.299L273.613,228.596z"/>
	</g>
</g>
<g>
	<g>
		<path d="M239.157,481.996l-6.957-53.863c-43.779-8.272-84.328-29.365-116.305-60.712L93.679,481.996H31.004V512h270.039v-30.004
			H239.157z"/>
	</g>
</g>
<g>
</g>
<g>
</g>
<g>
</g>
<g>
</g>
<g>
</g>
<g>
</g>
<g>
</g>
<g>
</g>
<g>
</g>
<g>
</g>
<g>
</g>
<g>
</g>
<g>
</g>
<g>
</g>
<g>
</g>
</svg>
